<svg xmlns="http://www.w3.org/2000/svg" width="760" height="130" viewBox="0 0 760 130" role="img" aria-label="Animation Sentinel 0/15"><rect width="760" height="130" rx="18" fill="#1d1411"/><rect x="14" y="14" width="732" height="102" rx="12" fill="#2b1c17" stroke="#d8a657"/><text x="34" y="50" fill="#f2dfb5" font-family="Georgia,serif" font-size="22">Animation Sentinel · 动画守护</text><text x="34" y="82" fill="#d8a657" font-family="Georgia,serif" font-size="32">0 / 15</text><text x="180" y="79" fill="#f2dfb5" font-family="Arial,sans-serif" font-size="15">预计提交 16 条 · 基准守护运行中</text><circle cx="34" cy="105" r="4" fill="#4a3328"/><circle cx="48" cy="105" r="4" fill="#4a3328"/><circle cx="62" cy="105" r="4" fill="#4a3328"/><circle cx="76" cy="105" r="4" fill="#4a3328"/><circle cx="90" cy="105" r="4" fill="#4a3328"/><circle cx="104" cy="105" r="4" fill="#4a3328"/><circle cx="118" cy="105" r="4" fill="#4a3328"/><circle cx="132" cy="105" r="4" fill="#4a3328"/><circle cx="146" cy="105" r="4" fill="#4a3328"/><circle cx="160" cy="105" r="4" fill="#4a3328"/><circle cx="174" cy="105" r="4" fill="#4a3328"/><circle cx="188" cy="105" r="4" fill="#4a3328"/><circle cx="202" cy="105" r="4" fill="#4a3328"/><circle cx="216" cy="105" r="4" fill="#4a3328"/><circle cx="230" cy="105" r="4" fill="#4a3328"/></svg>
